<svg id="visual" viewBox="0 0 900 600" width="900" height="600" xmlns="http://www.w3.org/2000/svg" xmlns:xlink="http://www.w3.org/1999/xlink" version="1.1"><rect x="0" y="0" width="900" height="600" fill="#042556"></rect><path d="M0 445L129 402L257 388L386 393L514 415L643 424L771 446L900 393L900 601L771 601L643 601L514 601L386 601L257 601L129 601L0 601Z" fill="#6600ff"></path><path d="M0 418L129 462L257 472L386 457L514 416L643 478L771 413L900 478L900 601L771 601L643 601L514 601L386 601L257 601L129 601L0 601Z" fill="#672bfd"></path><path d="M0 460L129 439L257 476L386 486L514 508L643 459L771 504L900 493L900 601L771 601L643 601L514 601L386 601L257 601L129 601L0 601Z" fill="#6940fa"></path><path d="M0 525L129 517L257 496L386 496L514 531L643 495L771 538L900 488L900 601L771 601L643 601L514 601L386 601L257 601L129 601L0 601Z" fill="#6c50f6"></path><path d="M0 557L129 559L257 547L386 532L514 554L643 558L771 553L900 561L900 601L771 601L643 601L514 601L386 601L257 601L129 601L0 601Z" fill="#715df2"></path></svg>