<svg id="visual" viewBox="0 0 900 600" width="900" height="600" xmlns="http://www.w3.org/2000/svg" xmlns:xlink="http://www.w3.org/1999/xlink" version="1.1"><path d="M0 73L10.7 70C21.3 67 42.7 61 64.2 58C85.7 55 107.3 55 128.8 50C150.3 45 171.7 35 193 36C214.3 37 235.7 49 257 50C278.3 51 299.7 41 321.2 36C342.7 31 364.3 31 385.8 36C407.3 41 428.7 51 450 60C471.3 69 492.7 77 514.2 80C535.7 83 557.3 81 578.8 81C600.3 81 621.7 83 643 78C664.3 73 685.7 61 707 54C728.3 47 749.7 45 771.2 48C792.7 51 814.3 59 835.8 56C857.3 53 878.7 39 889.3 32L900 25L900 0L889.3 0C878.7 0 857.3 0 835.8 0C814.3 0 792.7 0 771.2 0C749.7 0 728.3 0 707 0C685.7 0 664.3 0 643 0C621.7 0 600.3 0 578.8 0C557.3 0 535.7 0 514.2 0C492.7 0 471.3 0 450 0C428.7 0 407.3 0 385.8 0C364.3 0 342.7 0 321.2 0C299.7 0 278.3 0 257 0C235.7 0 214.3 0 193 0C171.7 0 150.3 0 128.8 0C107.3 0 85.7 0 64.2 0C42.7 0 21.3 0 10.7 0L0 0Z" fill="#9e90fa"></path><path d="M0 115L10.7 109C21.3 103 42.7 91 64.2 84C85.7 77 107.3 75 128.8 78C150.3 81 171.7 89 193 95C214.3 101 235.7 105 257 104C278.3 103 299.7 97 321.2 87C342.7 77 364.3 63 385.8 61C407.3 59 428.7 69 450 86C471.3 103 492.7 127 514.2 130C535.7 133 557.3 115 578.8 113C600.3 111 621.7 125 643 120C664.3 115 685.7 91 707 82C728.3 73 749.7 79 771.2 83C792.7 87 814.3 89 835.8 89C857.3 89 878.7 87 889.3 86L900 85L900 23L889.3 30C878.7 37 857.3 51 835.8 54C814.3 57 792.7 49 771.2 46C749.7 43 728.3 45 707 52C685.7 59 664.3 71 643 76C621.7 81 600.3 79 578.8 79C557.3 79 535.7 81 514.2 78C492.7 75 471.3 67 450 58C428.7 49 407.3 39 385.8 34C364.3 29 342.7 29 321.2 34C299.7 39 278.3 49 257 48C235.7 47 214.3 35 193 34C171.7 33 150.3 43 128.8 48C107.3 53 85.7 53 64.2 56C42.7 59 21.3 65 10.7 68L0 71Z" fill="#8f7ff8"></path><path d="M0 139L10.7 135C21.3 131 42.7 123 64.2 117C85.7 111 107.3 107 128.8 114C150.3 121 171.7 139 193 144C214.3 149 235.7 141 257 141C278.3 141 299.7 149 321.2 149C342.7 149 364.3 141 385.8 134C407.3 127 428.7 121 450 129C471.3 137 492.7 159 514.2 162C535.7 165 557.3 149 578.8 149C600.3 149 621.7 165 643 167C664.3 169 685.7 157 707 146C728.3 135 749.7 125 771.2 126C792.7 127 814.3 139 835.8 143C857.3 147 878.7 143 889.3 141L900 139L900 83L889.3 84C878.7 85 857.3 87 835.8 87C814.3 87 792.7 85 771.2 81C749.7 77 728.3 71 707 80C685.7 89 664.3 113 643 118C621.7 123 600.3 109 578.8 111C557.3 113 535.7 131 514.2 128C492.7 125 471.3 101 450 84C428.7 67 407.3 57 385.8 59C364.3 61 342.7 75 321.2 85C299.7 95 278.3 101 257 102C235.7 103 214.3 99 193 93C171.7 87 150.3 79 128.8 76C107.3 73 85.7 75 64.2 82C42.7 89 21.3 101 10.7 107L0 113Z" fill="#816ef5"></path><path d="M0 259L10.7 273C21.3 287 42.7 315 64.2 304C85.7 293 107.3 243 128.8 236C150.3 229 171.7 265 193 284C214.3 303 235.7 305 257 307C278.3 309 299.7 311 321.2 312C342.7 313 364.3 313 385.8 313C407.3 313 428.7 313 450 310C471.3 307 492.7 301 514.2 299C535.7 297 557.3 299 578.8 297C600.3 295 621.7 289 643 276C664.3 263 685.7 243 707 240C728.3 237 749.7 251 771.2 274C792.7 297 814.3 329 835.8 334C857.3 339 878.7 317 889.3 306L900 295L900 137L889.3 139C878.7 141 857.3 145 835.8 141C814.3 137 792.7 125 771.2 124C749.7 123 728.3 133 707 144C685.7 155 664.3 167 643 165C621.7 163 600.3 147 578.8 147C557.3 147 535.7 163 514.2 160C492.7 157 471.3 135 450 127C428.7 119 407.3 125 385.8 132C364.3 139 342.7 147 321.2 147C299.7 147 278.3 139 257 139C235.7 139 214.3 147 193 142C171.7 137 150.3 119 128.8 112C107.3 105 85.7 109 64.2 115C42.7 121 21.3 129 10.7 133L0 137Z" fill="#715df2"></path><path d="M0 373L10.7 379C21.3 385 42.7 397 64.2 380C85.7 363 107.3 317 128.8 310C150.3 303 171.7 335 193 346C214.3 357 235.7 347 257 347C278.3 347 299.7 357 321.2 360C342.7 363 364.3 359 385.8 364C407.3 369 428.7 383 450 380C471.3 377 492.7 357 514.2 347C535.7 337 557.3 337 578.8 334C600.3 331 621.7 325 643 316C664.3 307 685.7 295 707 291C728.3 287 749.7 291 771.2 323C792.7 355 814.3 415 835.8 420C857.3 425 878.7 375 889.3 350L900 325L900 293L889.3 304C878.7 315 857.3 337 835.8 332C814.3 327 792.7 295 771.2 272C749.7 249 728.3 235 707 238C685.7 241 664.3 261 643 274C621.7 287 600.3 293 578.8 295C557.3 297 535.7 295 514.2 297C492.7 299 471.3 305 450 308C428.7 311 407.3 311 385.8 311C364.3 311 342.7 311 321.2 310C299.7 309 278.3 307 257 305C235.7 303 214.3 301 193 282C171.7 263 150.3 227 128.8 234C107.3 241 85.7 291 64.2 302C42.7 313 21.3 285 10.7 271L0 257Z" fill="#6652de"></path><path d="M0 475L10.7 487C21.3 499 42.7 523 64.2 516C85.7 509 107.3 471 128.8 452C150.3 433 171.7 433 193 445C214.3 457 235.7 481 257 479C278.3 477 299.7 449 321.2 445C342.7 441 364.3 461 385.8 481C407.3 501 428.7 521 450 518C471.3 515 492.7 489 514.2 469C535.7 449 557.3 435 578.8 432C600.3 429 621.7 437 643 439C664.3 441 685.7 437 707 439C728.3 441 749.7 449 771.2 466C792.7 483 814.3 509 835.8 513C857.3 517 878.7 499 889.3 490L900 481L900 323L889.3 348C878.7 373 857.3 423 835.8 418C814.3 413 792.7 353 771.2 321C749.7 289 728.3 285 707 289C685.7 293 664.3 305 643 314C621.7 323 600.3 329 578.8 332C557.3 335 535.7 335 514.2 345C492.7 355 471.3 375 450 378C428.7 381 407.3 367 385.8 362C364.3 357 342.7 361 321.2 358C299.7 355 278.3 345 257 345C235.7 345 214.3 355 193 344C171.7 333 150.3 301 128.8 308C107.3 315 85.7 361 64.2 378C42.7 395 21.3 383 10.7 377L0 371Z" fill="#5c48cb"></path><path d="M0 601L10.7 601C21.3 601 42.7 601 64.2 601C85.7 601 107.3 601 128.8 601C150.3 601 171.7 601 193 601C214.3 601 235.7 601 257 601C278.3 601 299.7 601 321.2 601C342.7 601 364.3 601 385.8 601C407.3 601 428.7 601 450 601C471.3 601 492.7 601 514.2 601C535.7 601 557.3 601 578.8 601C600.3 601 621.7 601 643 601C664.3 601 685.7 601 707 601C728.3 601 749.7 601 771.2 601C792.7 601 814.3 601 835.8 601C857.3 601 878.7 601 889.3 601L900 601L900 479L889.3 488C878.7 497 857.3 515 835.8 511C814.3 507 792.7 481 771.2 464C749.7 447 728.3 439 707 437C685.7 435 664.3 439 643 437C621.7 435 600.3 427 578.8 430C557.3 433 535.7 447 514.2 467C492.7 487 471.3 513 450 516C428.7 519 407.3 499 385.8 479C364.3 459 342.7 439 321.2 443C299.7 447 278.3 475 257 477C235.7 479 214.3 455 193 443C171.7 431 150.3 431 128.8 450C107.3 469 85.7 507 64.2 514C42.7 521 21.3 497 10.7 485L0 473Z" fill="#513eb8"></path></svg>